
<svg width="20" height="20" viewBox="0 0 20 20" fill="none" xmlns="http://www.w3.org/2000/svg">
<path fill-rule="evenodd" clip-rule="evenodd" d="M6.0625 1C5.7642 1.03698 5.47488 1.13093 5.21059 1.27761C4.85479 1.45917 4.55446 1.73345 4.34143 2.0716C4.12514 2.4149 4.0071 2.8109 4.0001 3.21659L4 17.3068L4.0001 17.3191C4.0071 17.7248 4.12514 18.1208 4.34143 18.4641C4.55446 18.8023 4.85479 19.0766 5.21059 19.2581C5.47488 19.4047 5.7642 19.4987 6.0625 19.5357V1Z" fill="white"/>
<path fill-rule="evenodd" clip-rule="evenodd" d="M6 1C6.2983 1.03698 6.58762 1.13093 6.85191 1.27761C7.20771 1.45917 7.50804 1.73345 7.72107 2.0716C7.93736 2.4149 8.0554 2.8109 8.0624 3.21659L8.0625 17.3068L8.0624 17.3191C8.0554 17.7248 7.93736 18.1208 7.72107 18.4641C7.50804 18.8023 7.20771 19.0766 6.85191 19.2581C6.58762 19.4047 6.2983 19.4987 6 19.5357V1Z" fill="white"/>
<path fill-rule="evenodd" clip-rule="evenodd" d="M14.125 1C13.8267 1.03698 13.5374 1.13093 13.2731 1.27761C12.9173 1.45917 12.617 1.73345 12.4039 2.0716C12.1876 2.4149 12.0696 2.8109 12.0626 3.21659L12.0625 17.3068L12.0626 17.3191C12.0696 17.7248 12.1876 18.1208 12.4039 18.4641C12.617 18.8023 12.9173 19.0766 13.2731 19.2581C13.5374 19.4047 13.8267 19.4987 14.125 19.5357V1Z" fill="white"/>
<path fill-rule="evenodd" clip-rule="evenodd" d="M14.0625 1C14.3608 1.03698 14.6501 1.13093 14.9144 1.27761C15.2702 1.45917 15.5705 1.73345 15.7836 2.0716C15.9999 2.4149 16.1179 2.8109 16.1249 3.21659L16.125 17.3068L16.1249 17.3191C16.1179 17.7248 15.9999 18.1208 15.7836 18.4641C15.5705 18.8023 15.2702 19.0766 14.9144 19.2581C14.6501 19.4047 14.3608 19.4987 14.0625 19.5357V1Z" fill="white"/>
</svg>
