<svg width="20" height="20" viewBox="0 0 20 20" fill="none" xmlns="http://www.w3.org/2000/svg">
<path fill-rule="evenodd" clip-rule="evenodd" d="M4.28947 0.714233C3.89003 0.714233 3.49727 0.815968 3.14819 1.00971C2.79239 1.19127 2.49206 1.46555 2.27903 1.8037C2.06274 2.147 1.9447 2.543 1.9377 2.94869L1.9376 17.0389L1.9377 17.0512C1.9447 17.4569 2.06274 17.8529 2.27903 18.1962C2.49206 18.5344 2.79239 18.8087 3.14819 18.9902C3.49727 19.1839 3.89003 19.2857 4.28947 19.2857C4.6949 19.2857 5.09344 19.1808 5.44643 18.9814C5.45464 18.9768 5.46276 18.9719 5.47077 18.9669L16.8654 11.9194C17.219 11.7408 17.5174 11.4691 17.7283 11.1333C17.9466 10.7859 18.0624 10.3839 18.0624 9.97353C18.0624 9.56321 17.9466 9.16121 17.7283 8.81375C17.5171 8.47756 17.2183 8.20566 16.8643 8.02705L5.46873 1.03163C5.46139 1.02712 5.45394 1.02274 5.44643 1.01849C5.09344 0.819043 4.6949 0.714233 4.28947 0.714233Z" fill="white"/>
</svg>
