<svg width="16" height="16" viewBox="0 0 16 16" fill="none" xmlns="http://www.w3.org/2000/svg">
<path fill-rule="evenodd" clip-rule="evenodd" d="M7.10277 1.44408C8.22782 0.663283 9.74105 1.48761 9.71429 2.84822V13.1716C9.68427 14.5274 8.11254 15.3291 6.99991 14.557C6.97402 14.5391 6.94967 14.519 6.92709 14.497L3.19634 10.8647H1.71429C0.774585 10.8647 0 10.0852 0 9.14689V6.85423C0 5.91591 0.774584 5.13647 1.71429 5.13647H3.20066L7.0353 1.49895C7.05637 1.47897 7.07893 1.46063 7.10277 1.44408ZM14.7955 3.77433C14.5504 3.3694 14.0233 3.23989 13.6184 3.48507C13.2135 3.73025 13.084 4.25728 13.3291 4.66223C13.9393 5.67001 14.2695 6.82231 14.2857 8.0002C14.2695 9.17807 13.9393 10.3304 13.3291 11.3382C13.084 11.7431 13.2135 12.2702 13.6184 12.5153C14.0233 12.7606 14.5504 12.631 14.7955 12.226C15.5661 10.9536 15.9819 9.49807 16 8.01062V7.98977C15.9819 6.50232 15.5661 5.04683 14.7955 3.77433ZM12.5671 5.83305C12.2653 5.46829 11.725 5.41718 11.3602 5.71889C10.9955 6.02062 10.9444 6.56092 11.2461 6.92569C11.4856 7.21534 11.6086 7.58396 11.5906 7.95943C11.5894 7.98659 11.5894 8.0138 11.5906 8.04096C11.6086 8.41643 11.4856 8.78505 11.2461 9.0747C10.9444 9.43947 10.9955 9.97977 11.3602 10.2815C11.725 10.5832 12.2653 10.5321 12.5671 10.1673C13.0701 9.55918 13.3322 8.78801 13.3047 8.0002C13.3322 7.21238 13.0701 6.44121 12.5671 5.83305Z" fill="white"/>
</svg>
