<svg width="24" height="24" viewBox="0 0 24 24" fill="none" xmlns="http://www.w3.org/2000/svg">
<g clip-path="url(#clip0_1_835)">
<path d="M19.5 2H4.5C3.30734 2.00264 2.16428 2.4776 1.32094 3.32094C0.477596 4.16428 0.00264157 5.30734 0 6.5L0 17.5C0.00264157 18.6927 0.477596 19.8357 1.32094 20.6791C2.16428 21.5224 3.30734 21.9974 4.5 22H19.5C20.6927 21.9974 21.8357 21.5224 22.6791 20.6791C23.5224 19.8357 23.9974 18.6927 24 17.5V6.5C23.9974 5.30734 23.5224 4.16428 22.6791 3.32094C21.8357 2.4776 20.6927 2.00264 19.5 2ZM15.93 13.34L10.17 16.22C9.94146 16.3341 9.68758 16.3879 9.4324 16.3764C9.17723 16.3649 8.92922 16.2884 8.71188 16.1542C8.49455 16.02 8.31509 15.8325 8.1905 15.6095C8.06592 15.3865 8.00035 15.1354 8 14.88V9.12C7.99755 8.86352 8.06134 8.61075 8.18521 8.38616C8.30909 8.16156 8.48884 7.97274 8.70707 7.83798C8.92531 7.70322 9.17463 7.62707 9.43092 7.61692C9.68721 7.60676 9.94178 7.66293 10.17 7.78L15.93 10.66C16.1814 10.7822 16.3933 10.9727 16.5416 11.2096C16.6898 11.4466 16.7685 11.7205 16.7685 12C16.7685 12.2795 16.6898 12.5534 16.5416 12.7904C16.3933 13.0273 16.1814 13.2178 15.93 13.34Z" fill="white"/>
</g>
<defs>
<clipPath id="clip0_1_835">
<rect width="24" height="24" fill="white"/>
</clipPath>
</defs>
</svg>
